<svg width="346" height="51" viewBox="0 0 346 51" fill="none" xmlns="http://www.w3.org/2000/svg">
<rect x="0.5" y="0.5" width="345" height="50" rx="7.5" fill="#F5F5F5"/>
<path d="M17.581 30.1705C16.7926 30.1705 16.1126 29.9964 15.5408 29.6484C14.9727 29.2969 14.5341 28.8068 14.2251 28.1783C13.9197 27.5462 13.767 26.8111 13.767 25.973C13.767 25.1349 13.9197 24.3963 14.2251 23.7571C14.5341 23.1143 14.9638 22.6136 15.5142 22.255C16.0682 21.8928 16.7145 21.7116 17.4531 21.7116C17.8793 21.7116 18.3001 21.7827 18.7156 21.9247C19.131 22.0668 19.5092 22.2976 19.8501 22.6172C20.1911 22.9332 20.4627 23.3523 20.6651 23.8743C20.8675 24.3963 20.9688 25.0391 20.9688 25.8026V26.3352H14.6619V25.2486H19.6903C19.6903 24.7869 19.598 24.375 19.4134 24.0128C19.2322 23.6506 18.973 23.3647 18.6357 23.1552C18.3018 22.9457 17.9077 22.8409 17.4531 22.8409C16.9524 22.8409 16.5192 22.9652 16.1534 23.2138C15.7912 23.4588 15.5124 23.7784 15.3171 24.1726C15.1218 24.5668 15.0241 24.9893 15.0241 25.4403V26.1648C15.0241 26.7827 15.1307 27.3065 15.3438 27.7362C15.5604 28.1623 15.8604 28.4872 16.244 28.7109C16.6275 28.9311 17.0732 29.0412 17.581 29.0412C17.9112 29.0412 18.2095 28.995 18.4759 28.9027C18.7457 28.8068 18.9783 28.6648 19.1737 28.4766C19.369 28.2848 19.5199 28.0469 19.6264 27.7628L20.8409 28.1037C20.7131 28.5156 20.4982 28.8778 20.1964 29.1903C19.8945 29.4993 19.5217 29.7408 19.0778 29.9148C18.6339 30.0852 18.1349 30.1705 17.581 30.1705ZM23.5988 21.8182L25.559 25.1634L27.5193 21.8182H28.9681L26.3261 25.9091L28.9681 30H27.5193L25.559 26.8253L23.5988 30H22.1499L24.7494 25.9091L22.1499 21.8182H23.5988ZM33.1696 30.1918C32.6511 30.1918 32.1806 30.0941 31.758 29.8988C31.3354 29.6999 30.9998 29.4141 30.7512 29.0412C30.5027 28.6648 30.3784 28.2102 30.3784 27.6776C30.3784 27.2088 30.4707 26.8288 30.6554 26.5376C30.84 26.2429 31.0868 26.0121 31.3958 25.8452C31.7047 25.6783 32.0456 25.554 32.4185 25.4723C32.7949 25.3871 33.1731 25.3196 33.5531 25.2699C34.0502 25.206 34.4533 25.158 34.7623 25.1261C35.0748 25.0906 35.302 25.032 35.4441 24.9503C35.5897 24.8686 35.6625 24.7266 35.6625 24.5241V24.4815C35.6625 23.956 35.5186 23.5476 35.231 23.2564C34.9469 22.9652 34.5154 22.8196 33.9366 22.8196C33.3365 22.8196 32.8659 22.951 32.525 23.2138C32.1841 23.4766 31.9444 23.7571 31.8059 24.0554L30.6127 23.6293C30.8258 23.1321 31.1099 22.745 31.465 22.468C31.8237 22.1875 32.2143 21.9922 32.6369 21.8821C33.063 21.7685 33.4821 21.7116 33.894 21.7116C34.1568 21.7116 34.4586 21.7436 34.7995 21.8075C35.144 21.8679 35.476 21.994 35.7956 22.1857C36.1188 22.3775 36.3869 22.6669 36.6 23.054C36.813 23.4411 36.9196 23.9595 36.9196 24.6094V30H35.6625V28.892H35.5985C35.5133 29.0696 35.3713 29.2596 35.1724 29.462C34.9735 29.6644 34.709 29.8366 34.3787 29.9787C34.0485 30.1207 33.6454 30.1918 33.1696 30.1918ZM33.3613 29.0625C33.8585 29.0625 34.2775 28.9648 34.6184 28.7695C34.9629 28.5742 35.2221 28.3221 35.3961 28.0131C35.5737 27.7042 35.6625 27.3793 35.6625 27.0384V25.8878C35.6092 25.9517 35.492 26.0103 35.3109 26.0636C35.1333 26.1133 34.9274 26.1577 34.693 26.1967C34.4622 26.2322 34.2367 26.2642 34.0165 26.2926C33.7999 26.3175 33.6241 26.3388 33.4892 26.3565C33.1625 26.3991 32.8571 26.4684 32.573 26.5643C32.2924 26.6566 32.0652 26.7969 31.8912 26.9851C31.7207 27.1697 31.6355 27.4219 31.6355 27.7415C31.6355 28.1783 31.7971 28.5085 32.1202 28.7322C32.4469 28.9524 32.8606 29.0625 33.3613 29.0625ZM39.214 30V21.8182H40.4285V23.0966H40.5351C40.7055 22.6598 40.9807 22.3207 41.3607 22.0792C41.7407 21.8342 42.197 21.7116 42.7297 21.7116C43.2694 21.7116 43.7187 21.8342 44.0773 22.0792C44.4395 22.3207 44.7219 22.6598 44.9243 23.0966H45.0095C45.219 22.674 45.5333 22.3384 45.9523 22.0898C46.3714 21.8377 46.8738 21.7116 47.4598 21.7116C48.1913 21.7116 48.7897 21.9407 49.2549 22.3988C49.7201 22.8533 49.9527 23.5618 49.9527 24.5241V30H48.6956V24.5241C48.6956 23.9205 48.5305 23.489 48.2002 23.2298C47.8699 22.9705 47.4811 22.8409 47.0336 22.8409C46.4584 22.8409 46.0127 23.0149 45.6966 23.3629C45.3806 23.7074 45.2226 24.1442 45.2226 24.6733V30H43.9442V24.3963C43.9442 23.9311 43.7932 23.5565 43.4914 23.2724C43.1895 22.9847 42.8007 22.8409 42.3248 22.8409C41.9981 22.8409 41.6927 22.9279 41.4086 23.1019C41.1281 23.2759 40.9008 23.5174 40.7268 23.8263C40.5564 24.1317 40.4711 24.4851 40.4711 24.8864V30H39.214ZM52.2512 33.0682V21.8182H53.4656V23.1179H53.6148C53.7071 22.9759 53.835 22.7947 53.9983 22.5746C54.1652 22.3509 54.4031 22.152 54.7121 21.978C55.0246 21.8004 55.4472 21.7116 55.9798 21.7116C56.6688 21.7116 57.276 21.8839 57.8016 22.2283C58.3271 22.5728 58.7373 23.0611 59.032 23.6932C59.3268 24.3253 59.4742 25.071 59.4742 25.9304C59.4742 26.7969 59.3268 27.5479 59.032 28.1836C58.7373 28.8157 58.3289 29.3058 57.8069 29.6538C57.2849 29.9982 56.683 30.1705 56.0012 30.1705C55.4756 30.1705 55.0548 30.0835 54.7387 29.9094C54.4227 29.7319 54.1794 29.5312 54.009 29.3075C53.8385 29.0803 53.7071 28.892 53.6148 28.7429H53.5083V33.0682H52.2512ZM53.4869 25.9091C53.4869 26.527 53.5775 27.0721 53.7586 27.5444C53.9397 28.0131 54.2043 28.3807 54.5523 28.647C54.9003 28.9098 55.3264 29.0412 55.8307 29.0412C56.3563 29.0412 56.7948 28.9027 57.1464 28.6257C57.5015 28.3452 57.7678 27.9687 57.9454 27.4964C58.1265 27.0206 58.2171 26.4915 58.2171 25.9091C58.2171 25.3338 58.1283 24.8153 57.9507 24.3537C57.7767 23.8885 57.5122 23.521 57.157 23.2511C56.8055 22.9776 56.3634 22.8409 55.8307 22.8409C55.3193 22.8409 54.8896 22.9705 54.5416 23.2298C54.1936 23.4854 53.9308 23.8441 53.7533 24.3058C53.5757 24.7638 53.4869 25.2983 53.4869 25.9091ZM62.6489 19.0909V30H61.3918V19.0909H62.6489ZM68.3817 30.1705C67.5934 30.1705 66.9134 29.9964 66.3416 29.6484C65.7734 29.2969 65.3349 28.8068 65.0259 28.1783C64.7205 27.5462 64.5678 26.8111 64.5678 25.973C64.5678 25.1349 64.7205 24.3963 65.0259 23.7571C65.3349 23.1143 65.7646 22.6136 66.315 22.255C66.869 21.8928 67.5153 21.7116 68.2539 21.7116C68.68 21.7116 69.1009 21.7827 69.5163 21.9247C69.9318 22.0668 70.31 22.2976 70.6509 22.6172C70.9918 22.9332 71.2635 23.3523 71.4659 23.8743C71.6683 24.3963 71.7695 25.0391 71.7695 25.8026V26.3352H65.4627V25.2486H70.4911C70.4911 24.7869 70.3988 24.375 70.2141 24.0128C70.033 23.6506 69.7738 23.3647 69.4364 23.1552C69.1026 22.9457 68.7085 22.8409 68.2539 22.8409C67.7532 22.8409 67.32 22.9652 66.9542 23.2138C66.592 23.4588 66.3132 23.7784 66.1179 24.1726C65.9226 24.5668 65.8249 24.9893 65.8249 25.4403V26.1648C65.8249 26.7827 65.9315 27.3065 66.1445 27.7362C66.3612 28.1623 66.6612 28.4872 67.0447 28.7109C67.4283 28.9311 67.8739 29.0412 68.3817 29.0412C68.712 29.0412 69.0103 28.995 69.2766 28.9027C69.5465 28.8068 69.7791 28.6648 69.9744 28.4766C70.1697 28.2848 70.3207 28.0469 70.4272 27.7628L71.6417 28.1037C71.5138 28.5156 71.299 28.8778 70.9972 29.1903C70.6953 29.4993 70.3224 29.7408 69.8786 29.9148C69.4347 30.0852 68.9357 30.1705 68.3817 30.1705ZM79.9673 32.8764C78.8807 32.8764 77.9201 32.7273 77.0856 32.429C76.2511 32.1342 75.5497 31.6992 74.9815 31.1239C74.4134 30.5487 73.9837 29.8437 73.6925 29.0092C73.4013 28.1747 73.2557 27.2195 73.2557 26.1435C73.2557 25.103 73.4031 24.1726 73.6978 23.3523C73.9961 22.532 74.4276 21.8359 74.9922 21.2642C75.5604 20.6889 76.2493 20.2504 77.0589 19.9485C77.8722 19.6467 78.7919 19.4957 79.8182 19.4957C80.8161 19.4957 81.6896 19.6591 82.4389 19.9858C83.1918 20.3089 83.8203 20.7475 84.3246 21.3015C84.8324 21.8519 85.2124 22.4716 85.4645 23.1605C85.7202 23.8494 85.848 24.5597 85.848 25.2912C85.848 25.8061 85.8232 26.3281 85.7734 26.8572C85.7237 27.3864 85.619 27.8729 85.4592 28.3168C85.2994 28.7571 85.0526 29.1122 84.7188 29.3821C84.3885 29.652 83.9411 29.7869 83.3764 29.7869C83.1278 29.7869 82.8544 29.7479 82.5561 29.6697C82.2578 29.5916 81.9933 29.462 81.7624 29.2809C81.5316 29.0998 81.3949 28.8565 81.3523 28.5511H81.2884C81.2031 28.7571 81.0717 28.9524 80.8942 29.1371C80.7202 29.3217 80.4911 29.4691 80.207 29.5792C79.9265 29.6893 79.5838 29.7372 79.179 29.723C78.7173 29.7053 78.3107 29.6023 77.9592 29.4141C77.6076 29.2223 77.3129 28.9631 77.0749 28.6364C76.8406 28.3061 76.663 27.9244 76.5423 27.4911C76.4251 27.0543 76.3665 26.5838 76.3665 26.0795C76.3665 25.6001 76.4375 25.1616 76.5795 24.7638C76.7216 24.3661 76.9187 24.0181 77.1708 23.7198C77.4265 23.4215 77.7248 23.1836 78.0657 23.006C78.4102 22.8249 78.7813 22.7131 79.179 22.6705C79.5341 22.6349 79.8572 22.6509 80.1484 22.7184C80.4396 22.7823 80.6793 22.88 80.8675 23.0114C81.0558 23.1392 81.1747 23.2812 81.2244 23.4375H81.2884V22.8409H82.4176V27.6562C82.4176 27.9545 82.5011 28.2173 82.668 28.4446C82.8349 28.6719 83.0781 28.7855 83.3977 28.7855C83.7599 28.7855 84.0369 28.6612 84.2287 28.4126C84.424 28.1641 84.5572 27.7805 84.6282 27.2621C84.7028 26.7436 84.7401 26.0795 84.7401 25.2699C84.7401 24.794 84.6744 24.3253 84.543 23.8636C84.4151 23.3984 84.2198 22.9634 83.957 22.5586C83.6978 22.1538 83.3693 21.7969 82.9716 21.4879C82.5739 21.179 82.1069 20.9375 81.5707 20.7635C81.038 20.5859 80.4325 20.4972 79.7543 20.4972C78.9197 20.4972 78.1722 20.6268 77.5117 20.886C76.8548 21.1417 76.2955 21.5163 75.8338 22.0099C75.3757 22.5 75.0259 23.0966 74.7844 23.7997C74.5465 24.4993 74.4276 25.2947 74.4276 26.1861C74.4276 27.0916 74.5465 27.896 74.7844 28.5991C75.0259 29.3022 75.381 29.8952 75.8498 30.3782C76.3221 30.8612 76.9062 31.2269 77.6023 31.4755C78.2983 31.7276 79.1009 31.8537 80.0099 31.8537C80.4006 31.8537 80.7859 31.8164 81.1658 31.7418C81.5458 31.6673 81.8814 31.5856 82.1726 31.4968C82.4638 31.408 82.6733 31.3423 82.8011 31.2997L83.0994 32.2798C82.8793 32.3722 82.5916 32.4645 82.2365 32.5568C81.8849 32.6491 81.5085 32.7255 81.1072 32.7859C80.7095 32.8462 80.3295 32.8764 79.9673 32.8764ZM79.3494 28.6364C79.8253 28.6364 80.2106 28.5405 80.5053 28.3487C80.8001 28.157 81.0149 27.8675 81.1499 27.4805C81.2848 27.0934 81.3523 26.6051 81.3523 26.0156C81.3523 25.419 81.2777 24.9538 81.1286 24.62C80.9794 24.2862 80.7592 24.0518 80.468 23.9169C80.1768 23.782 79.8182 23.7145 79.392 23.7145C78.9872 23.7145 78.641 23.821 78.3533 24.0341C78.0692 24.2436 77.8509 24.5241 77.6982 24.8757C77.549 25.2237 77.4744 25.6037 77.4744 26.0156C77.4744 26.4702 77.5348 26.8981 77.6555 27.2994C77.7763 27.6971 77.9734 28.0202 78.2468 28.2688C78.5202 28.5138 78.8878 28.6364 79.3494 28.6364ZM91.1601 30.1705C90.3717 30.1705 89.6917 29.9964 89.1199 29.6484C88.5518 29.2969 88.1132 28.8068 87.8042 28.1783C87.4988 27.5462 87.3461 26.8111 87.3461 25.973C87.3461 25.1349 87.4988 24.3963 87.8042 23.7571C88.1132 23.1143 88.5429 22.6136 89.0933 22.255C89.6473 21.8928 90.2936 21.7116 91.0322 21.7116C91.4584 21.7116 91.8792 21.7827 92.2947 21.9247C92.7101 22.0668 93.0883 22.2976 93.4292 22.6172C93.7702 22.9332 94.0418 23.3523 94.2442 23.8743C94.4466 24.3963 94.5479 25.0391 94.5479 25.8026V26.3352H88.241V25.2486H93.2694C93.2694 24.7869 93.1771 24.375 92.9925 24.0128C92.8113 23.6506 92.5521 23.3647 92.2148 23.1552C91.8809 22.9457 91.4868 22.8409 91.0322 22.8409C90.5315 22.8409 90.0983 22.9652 89.7325 23.2138C89.3703 23.4588 89.0915 23.7784 88.8962 24.1726C88.7009 24.5668 88.6032 24.9893 88.6032 25.4403V26.1648C88.6032 26.7827 88.7098 27.3065 88.9229 27.7362C89.1395 28.1623 89.4395 28.4872 89.8231 28.7109C90.2066 28.9311 90.6523 29.0412 91.1601 29.0412C91.4903 29.0412 91.7886 28.995 92.055 28.9027C92.3248 28.8068 92.5574 28.6648 92.7528 28.4766C92.9481 28.2848 93.099 28.0469 93.2055 27.7628L94.42 28.1037C94.2922 28.5156 94.0773 28.8778 93.7755 29.1903C93.4736 29.4993 93.1008 29.7408 92.6569 29.9148C92.213 30.0852 91.714 30.1705 91.1601 30.1705ZM96.4601 30V21.8182H97.6746V23.0966H97.7812C97.9516 22.6598 98.2268 22.3207 98.6068 22.0792C98.9868 21.8342 99.4431 21.7116 99.9758 21.7116C100.516 21.7116 100.965 21.8342 101.323 22.0792C101.686 22.3207 101.968 22.6598 102.17 23.0966H102.256C102.465 22.674 102.779 22.3384 103.198 22.0898C103.617 21.8377 104.12 21.7116 104.706 21.7116C105.437 21.7116 106.036 21.9407 106.501 22.3988C106.966 22.8533 107.199 23.5618 107.199 24.5241V30H105.942V24.5241C105.942 23.9205 105.777 23.489 105.446 23.2298C105.116 22.9705 104.727 22.8409 104.28 22.8409C103.704 22.8409 103.259 23.0149 102.943 23.3629C102.627 23.7074 102.469 24.1442 102.469 24.6733V30H101.19V24.3963C101.19 23.9311 101.039 23.5565 100.737 23.2724C100.436 22.9847 100.047 22.8409 99.5709 22.8409C99.2442 22.8409 98.9388 22.9279 98.6547 23.1019C98.3742 23.2759 98.1469 23.5174 97.9729 23.8263C97.8025 24.1317 97.7172 24.4851 97.7172 24.8864V30H96.4601ZM111.905 30.1918C111.386 30.1918 110.916 30.0941 110.493 29.8988C110.071 29.6999 109.735 29.4141 109.487 29.0412C109.238 28.6648 109.114 28.2102 109.114 27.6776C109.114 27.2088 109.206 26.8288 109.391 26.5376C109.575 26.2429 109.822 26.0121 110.131 25.8452C110.44 25.6783 110.781 25.554 111.154 25.4723C111.53 25.3871 111.908 25.3196 112.288 25.2699C112.786 25.206 113.189 25.158 113.498 25.1261C113.81 25.0906 114.037 25.032 114.179 24.9503C114.325 24.8686 114.398 24.7266 114.398 24.5241V24.4815C114.398 23.956 114.254 23.5476 113.966 23.2564C113.682 22.9652 113.251 22.8196 112.672 22.8196C112.072 22.8196 111.601 22.951 111.26 23.2138C110.919 23.4766 110.68 23.7571 110.541 24.0554L109.348 23.6293C109.561 23.1321 109.845 22.745 110.2 22.468C110.559 22.1875 110.95 21.9922 111.372 21.8821C111.798 21.7685 112.217 21.7116 112.629 21.7116C112.892 21.7116 113.194 21.7436 113.535 21.8075C113.879 21.8679 114.211 21.994 114.531 22.1857C114.854 22.3775 115.122 22.6669 115.335 23.054C115.548 23.4411 115.655 23.9595 115.655 24.6094V30H114.398V28.892H114.334C114.249 29.0696 114.107 29.2596 113.908 29.462C113.709 29.6644 113.444 29.8366 113.114 29.9787C112.784 30.1207 112.381 30.1918 111.905 30.1918ZM112.097 29.0625C112.594 29.0625 113.013 28.9648 113.354 28.7695C113.698 28.5742 113.957 28.3221 114.131 28.0131C114.309 27.7042 114.398 27.3793 114.398 27.0384V25.8878C114.345 25.9517 114.227 26.0103 114.046 26.0636C113.869 26.1133 113.663 26.1577 113.428 26.1967C113.198 26.2322 112.972 26.2642 112.752 26.2926C112.535 26.3175 112.359 26.3388 112.225 26.3565C111.898 26.3991 111.592 26.4684 111.308 26.5643C111.028 26.6566 110.801 26.7969 110.627 26.9851C110.456 27.1697 110.371 27.4219 110.371 27.7415C110.371 28.1783 110.532 28.5085 110.856 28.7322C111.182 28.9524 111.596 29.0625 112.097 29.0625ZM117.949 30V21.8182H119.206V30H117.949ZM118.589 20.4545C118.344 20.4545 118.132 20.3711 117.955 20.2042C117.781 20.0373 117.694 19.8366 117.694 19.6023C117.694 19.3679 117.781 19.1673 117.955 19.0004C118.132 18.8335 118.344 18.75 118.589 18.75C118.834 18.75 119.043 18.8335 119.217 19.0004C119.395 19.1673 119.483 19.3679 119.483 19.6023C119.483 19.8366 119.395 20.0373 119.217 20.2042C119.043 20.3711 118.834 20.4545 118.589 20.4545ZM122.766 19.0909V30H121.509V19.0909H122.766ZM125.985 30.0852C125.722 30.0852 125.496 29.9911 125.308 29.8029C125.12 29.6147 125.026 29.3892 125.026 29.1264C125.026 28.8636 125.12 28.6381 125.308 28.4499C125.496 28.2617 125.722 28.1676 125.985 28.1676C126.248 28.1676 126.473 28.2617 126.661 28.4499C126.849 28.6381 126.944 28.8636 126.944 29.1264C126.944 29.3004 126.899 29.4602 126.81 29.6058C126.725 29.7514 126.61 29.8686 126.464 29.9574C126.322 30.0426 126.162 30.0852 125.985 30.0852ZM132.523 30.1705C131.756 30.1705 131.096 29.9893 130.542 29.6271C129.988 29.2649 129.562 28.766 129.263 28.1303C128.965 27.4947 128.816 26.7685 128.816 25.9517C128.816 25.1207 128.969 24.3874 129.274 23.7518C129.583 23.1126 130.013 22.6136 130.563 22.255C131.117 21.8928 131.763 21.7116 132.502 21.7116C133.077 21.7116 133.596 21.8182 134.057 22.0312C134.519 22.2443 134.897 22.5426 135.192 22.9261C135.487 23.3097 135.67 23.7571 135.741 24.2685H134.483C134.388 23.8956 134.175 23.5653 133.844 23.2777C133.518 22.9865 133.077 22.8409 132.523 22.8409C132.033 22.8409 131.604 22.9687 131.234 23.2244C130.868 23.4766 130.583 23.8335 130.377 24.2951C130.174 24.7532 130.073 25.2912 130.073 25.9091C130.073 26.5412 130.172 27.0916 130.371 27.5604C130.574 28.0291 130.858 28.3931 131.224 28.6523C131.593 28.9116 132.026 29.0412 132.523 29.0412C132.85 29.0412 133.146 28.9844 133.413 28.8707C133.679 28.7571 133.905 28.5938 134.089 28.3807C134.274 28.1676 134.405 27.9119 134.483 27.6136H135.741C135.67 28.0966 135.494 28.5316 135.213 28.9187C134.936 29.3022 134.569 29.6076 134.111 29.8349C133.656 30.0586 133.127 30.1705 132.523 30.1705ZM140.902 30.1705C140.164 30.1705 139.515 29.9947 138.958 29.6431C138.404 29.2915 137.971 28.7997 137.658 28.1676C137.349 27.5355 137.195 26.7969 137.195 25.9517C137.195 25.0994 137.349 24.3555 137.658 23.7198C137.971 23.0842 138.404 22.5906 138.958 22.239C139.515 21.8874 140.164 21.7116 140.902 21.7116C141.641 21.7116 142.287 21.8874 142.841 22.239C143.399 22.5906 143.832 23.0842 144.141 23.7198C144.453 24.3555 144.61 25.0994 144.61 25.9517C144.61 26.7969 144.453 27.5355 144.141 28.1676C143.832 28.7997 143.399 29.2915 142.841 29.6431C142.287 29.9947 141.641 30.1705 140.902 30.1705ZM140.902 29.0412C141.463 29.0412 141.925 28.8974 142.287 28.6097C142.649 28.3221 142.917 27.9439 143.091 27.4751C143.265 27.0064 143.352 26.4986 143.352 25.9517C143.352 25.4048 143.265 24.8952 143.091 24.4229C142.917 23.9506 142.649 23.5689 142.287 23.2777C141.925 22.9865 141.463 22.8409 140.902 22.8409C140.341 22.8409 139.879 22.9865 139.517 23.2777C139.155 23.5689 138.887 23.9506 138.713 24.4229C138.539 24.8952 138.452 25.4048 138.452 25.9517C138.452 26.4986 138.539 27.0064 138.713 27.4751C138.887 27.9439 139.155 28.3221 139.517 28.6097C139.879 28.8974 140.341 29.0412 140.902 29.0412ZM146.528 30V21.8182H147.743V23.0966H147.85C148.02 22.6598 148.295 22.3207 148.675 22.0792C149.055 21.8342 149.511 21.7116 150.044 21.7116C150.584 21.7116 151.033 21.8342 151.392 22.0792C151.754 22.3207 152.036 22.6598 152.239 23.0966H152.324C152.533 22.674 152.848 22.3384 153.267 22.0898C153.686 21.8377 154.188 21.7116 154.774 21.7116C155.506 21.7116 156.104 21.9407 156.569 22.3988C157.035 22.8533 157.267 23.5618 157.267 24.5241V30H156.01V24.5241C156.01 23.9205 155.845 23.489 155.515 23.2298C155.184 22.9705 154.796 22.8409 154.348 22.8409C153.773 22.8409 153.327 23.0149 153.011 23.3629C152.695 23.7074 152.537 24.1442 152.537 24.6733V30H151.259V24.3963C151.259 23.9311 151.108 23.5565 150.806 23.2724C150.504 22.9847 150.115 22.8409 149.639 22.8409C149.313 22.8409 149.007 22.9279 148.723 23.1019C148.443 23.2759 148.215 23.5174 148.041 23.8263C147.871 24.1317 147.786 24.4851 147.786 24.8864V30H146.528Z" fill="#141414"/>
<rect x="0.5" y="0.5" width="345" height="50" rx="7.5" stroke="#C7C7C7"/>
</svg>
