<svg width="28" height="36" viewBox="0 0 28 36" fill="none" xmlns="http://www.w3.org/2000/svg">
<path d="M22 18H6M22 18H24.8C25.1183 18 25.4235 18.1264 25.6485 18.3515C25.8736 18.5765 26 18.8817 26 19.2V32.8C26 33.1183 25.8736 33.4235 25.6485 33.6485C25.4235 33.8736 25.1183 34 24.8 34H3.2C2.88174 34 2.57652 33.8736 2.35147 33.6485C2.12643 33.4235 2 33.1183 2 32.8V19.2C2 18.8817 2.12643 18.5765 2.35147 18.3515C2.57652 18.1264 2.88174 18 3.2 18H6H22ZM22 18V10C22 7.334 20.4 2 14 2C7.6 2 6 7.334 6 10V18H22Z" stroke="#141414" stroke-width="3" stroke-linecap="round" stroke-linejoin="round"/>
</svg>
